<?xml version="1.0" encoding="iso-8859-1"?>
<!-- Generator: Adobe Illustrator 19.0.0, SVG Export Plug-In . SVG Version: 6.00 Build 0)  -->
<svg xmlns="http://www.w3.org/2000/svg" xmlns:xlink="http://www.w3.org/1999/xlink" version="1.1" id="Capa_1" x="0px" y="0px" viewBox="0 0 512 512" style="enable-background:new 0 0 512 512;" xml:space="preserve" width="512px" height="512px">
<g>
	<g>
		<path d="M486.233,420.898h-9.965v-55.934c6.754-4.064,12.939-9.682,18.277-16.736C505.801,333.35,512,313.723,512,292.959    c0-18.947-5.151-36.909-14.599-51.213c2.427-7.688,3.696-15.987,3.696-24.31c0-18.509-5.967-35.62-16.539-47.899    c0.649-3.385,0.976-6.861,0.976-10.392c0-24.62-16.246-44.648-36.214-44.648c-19.847,0-36.008,19.788-36.206,44.201    c0,0.004,0,0.009,0,0.013c-0.001,0.145-0.009,0.289-0.009,0.434c0,0.166,0.01,0.33,0.012,0.496c0,0.01,0,0.021,0.001,0.031    c0.031,3.349,0.347,6.649,0.963,9.865c-10.572,12.28-16.539,29.392-16.539,47.899c0,8.322,1.27,16.623,3.697,24.313    c-2.959,4.488-5.519,9.377-7.637,14.593c-2.078,5.117,0.387,10.949,5.504,13.027c5.117,2.077,10.949-0.387,13.027-5.504    c2.177-5.363,4.935-10.229,8.196-14.466c2.16-2.806,2.675-6.544,1.355-9.829c-2.71-6.745-4.143-14.398-4.143-22.134    c0-13.387,4.242-25.974,11.493-34.586c2.584,2.563,5.373,4.927,8.247,6.724c1.648,1.029,3.48,1.521,5.291,1.521    c3.333,0,6.592-1.666,8.489-4.701c2.927-4.684,1.503-10.853-3.18-13.78c-4.863-3.039-10.965-10.741-14.665-16.241    c0.94-12.113,7.93-21.876,16.104-21.876c8.79,0,16.215,11.288,16.215,24.649c0,3.582-0.52,7.048-1.543,10.3    c-1.152,3.659-0.11,7.654,2.682,10.283c9.032,8.507,14.424,22.604,14.424,37.708c0,2.236-0.134,4.462-0.369,6.665    c-3.989-2.972-8.801-5.906-14.379-8.167c-5.117-2.076-10.949,0.393-13.024,5.511s0.392,10.949,5.511,13.024    c11.931,4.837,19.074,14.391,19.28,14.67c0.034,0.047,0.075,0.087,0.109,0.134c0.031,0.041,0.054,0.086,0.085,0.126    c8.829,11.466,13.69,26.936,13.69,43.56c0,26.317-12.271,48.69-29.236,56.58c-0.198,0.074-0.399,0.135-0.593,0.223    c-3.131,1.406-6.355,2.283-9.597,2.635c-0.021,0.002-0.042,0.004-0.063,0.007c-0.523,0.056-1.047,0.098-1.571,0.126    c-0.049,0.003-0.097,0.003-0.146,0.005c-0.874,0.043-1.748,0.042-2.622,0.01c-0.209-0.008-0.418-0.01-0.626-0.023    c-0.338-0.02-0.675-0.051-1.013-0.082c-0.366-0.035-0.732-0.074-1.097-0.122c-0.233-0.03-0.466-0.059-0.698-0.095    c-9.998-1.555-19.469-8.139-26.508-18.606c-3.083-4.582-9.296-5.798-13.878-2.717c-4.583,3.082-5.799,9.296-2.717,13.879    c5.782,8.597,12.867,15.404,20.737,20.135v55.982h-22.912l-68.774-68.563c-14.234-17.585-35.965-28.703-59.956-28.703    c-18.617,0-36.6,6.733-50.638,18.961c-2.318,2.019-4.489,4.177-6.532,6.436l-72.09,71.87h-36.818v-29.462h24.16    c10.623,0,20.237-5.433,25.718-14.531c5.481-9.1,5.789-20.139,0.823-29.528l-22.461-42.471c6.447,0.411,12.615-2.409,16.57-7.728    c4.524-6.082,5.085-13.998,1.465-20.657l-31.498-57.945c3.731-0.142,7.373-1.656,10.161-4.428    c4.695-4.665,5.846-11.771,2.862-17.681c-9.542-18.897-26.228-51.976-36.108-71.566c-3.239-6.42-9.718-10.408-16.908-10.407    c-7.193,0-13.675,3.991-16.914,10.415c-2.486,4.932-0.504,10.945,4.427,13.432c4.334,2.187,9.502,0.921,12.379-2.765    c8.633,17.117,21.819,43.26,31.223,61.889c-3.421,0.576-6.665,2.221-9.235,4.854c-5.182,5.309-6.283,13.254-2.74,19.771    l34.026,62.596c-6.589-0.808-13.022,1.896-17.078,7.284c-4.382,5.822-4.988,13.441-1.582,19.884l23.732,44.873    c2.39,4.519,0.604,8.399-0.275,9.858c-0.879,1.459-3.474,4.852-8.586,4.852h-34.16H64.218H30.057    c-5.111,0-7.707-3.393-8.586-4.852c-0.878-1.459-2.665-5.34-0.275-9.858l23.732-44.874c3.407-6.441,2.801-14.061-1.582-19.882    c-4.057-5.39-10.491-8.095-17.078-7.285l34.026-62.596c3.542-6.518,2.441-14.463-2.74-19.771    c-2.567-2.629-5.805-4.273-9.222-4.852l1.958-3.882c2.486-4.932,0.505-10.945-4.427-13.432c-4.93-2.486-10.944-0.506-13.432,4.426    l-6.004,11.908c-2.978,5.905-1.826,13.005,2.868,17.666c2.785,2.767,6.421,4.279,10.146,4.422L7.944,276.521    c-3.621,6.66-3.06,14.575,1.464,20.658c3.956,5.318,10.131,8.134,16.571,7.728L3.518,347.378    c-4.966,9.39-4.658,20.429,0.823,29.527c5.481,9.1,15.095,14.532,25.718,14.532h24.161v29.462H17.466c-5.523,0-10,4.478-10,10    c0,5.522,4.477,10,10,10h46.75h30.436H198.81h45.945h51.458h45.944h144.075c5.523,0,10-4.478,10-10    C496.233,425.376,491.756,420.898,486.233,420.898z M84.653,420.898H74.218v-29.462h10.436V420.898z M190.101,420.898h-20.304    l23.558-23.485L190.101,420.898z M286.215,420.898h-31.46v-6.402c0-8.674,7.056-15.73,15.73-15.73s15.73,7.057,15.73,15.73    V420.898z M306.214,420.899v-0.001v-6.402c0-19.702-16.028-35.729-35.729-35.729c-19.701,0-35.729,16.028-35.729,35.729v6.402    h-24.465l3.88-28.005c1.661-11.988,7.052-22.709,14.882-31.07l2.852-2.843c10.276-9.546,23.995-15.349,38.825-15.349    c13.492,0,26.02,4.746,35.885,12.731c0.323,0.454,0.678,0.892,1.086,1.298l8.113,8.088c6.116,7.858,10.249,17.376,11.568,27.847    l3.439,27.304H306.214z M350.978,420.898l-2.894-22.979l23.049,22.979H350.978z M456.268,420.832h-13.898v-48.723    c3.266,0.456,6.587,0.581,9.888,0.387c0.142-0.008,0.284-0.013,0.425-0.022c0.831-0.056,1.66-0.138,2.487-0.235    c0.336-0.039,0.671-0.078,1.005-0.123c0.032-0.004,0.063-0.007,0.093-0.011V420.832z" fill="#308e86"/>
	</g>
</g>
<g>
	<g>
		<path d="M272.944,72.578c-3.298-2.023-7.469-1.963-10.707,0.156c-3.238,2.119-4.963,5.916-4.428,9.749    c0.22,1.578,0.332,3.144,0.332,4.654c0,18.379-14.952,33.331-33.331,33.331c-5.761,0-12.488-4.128-17.399-7.142    c-3.298-2.023-7.468-1.963-10.706,0.156c-3.238,2.119-4.962,5.916-4.428,9.748c3.765,27.006,26.961,48.157,52.806,48.157    c29.407,0,53.33-23.924,53.33-53.33C298.415,99.368,288.893,82.367,272.944,72.578z M245.084,151.387    c-8.82,0-17.323-4.312-23.534-11.081c1.072,0.106,2.158,0.162,3.26,0.162c23.482,0,43.468-15.257,50.568-36.377    c1.976,4.294,3.036,9.036,3.036,13.965C278.415,136.435,263.463,151.387,245.084,151.387z" fill="#308e86"/>
	</g>
</g>
<g>
	<g>
		<path d="M406.441,299.332c-0.13-0.64-0.32-1.27-0.57-1.88c-0.25-0.6-0.56-1.18-0.92-1.72c-0.36-0.55-0.78-1.06-1.24-1.52    c-0.46-0.461-0.97-0.881-1.52-1.25c-0.54-0.351-1.12-0.66-1.73-0.91c-0.6-0.25-1.23-0.45-1.87-0.57c-1.29-0.26-2.62-0.26-3.91,0    c-0.63,0.12-1.26,0.32-1.87,0.57c-0.6,0.25-1.18,0.56-1.72,0.91c-0.55,0.369-1.06,0.789-1.52,1.25c-0.46,0.46-0.88,0.97-1.25,1.52    c-0.36,0.54-0.67,1.12-0.92,1.72c-0.25,0.61-0.44,1.24-0.57,1.88c-0.13,0.641-0.19,1.301-0.19,1.95c0,0.65,0.06,1.311,0.19,1.95    c0.13,0.641,0.32,1.271,0.57,1.871c0.25,0.61,0.56,1.189,0.92,1.729c0.37,0.551,0.79,1.061,1.25,1.521    c0.46,0.46,0.97,0.88,1.52,1.24c0.54,0.359,1.12,0.67,1.72,0.92c0.61,0.25,1.24,0.439,1.87,0.569c0.65,0.131,1.31,0.2,1.96,0.2    c2.63,0,5.21-1.069,7.07-2.93c1.86-1.86,2.93-4.44,2.93-7.07C406.641,300.633,406.571,299.972,406.441,299.332z" fill="#308e86"/>
	</g>
</g>
<g>
	<g>
		<path d="M66.466,156.785c-0.13-0.64-0.32-1.27-0.57-1.87c-0.25-0.609-0.56-1.189-0.92-1.729c-0.36-0.55-0.78-1.061-1.24-1.521    c-0.46-0.46-0.97-0.88-1.52-1.239c-0.54-0.36-1.12-0.671-1.73-0.921c-0.6-0.25-1.23-0.439-1.87-0.569c-1.29-0.26-2.62-0.26-3.91,0    c-0.63,0.13-1.26,0.319-1.87,0.569c-0.6,0.25-1.18,0.561-1.72,0.921c-0.55,0.359-1.06,0.779-1.53,1.239    c-0.46,0.46-0.87,0.971-1.24,1.521c-0.36,0.54-0.67,1.12-0.92,1.729c-0.25,0.601-0.44,1.23-0.57,1.87    c-0.13,0.641-0.19,1.3-0.19,1.95c0,2.63,1.07,5.21,2.93,7.07c0.46,0.46,0.97,0.88,1.52,1.25c0.54,0.359,1.12,0.67,1.72,0.92    c0.61,0.25,1.24,0.439,1.87,0.569c0.65,0.131,1.31,0.19,1.96,0.19c0.65,0,1.31-0.06,1.95-0.19c0.64-0.13,1.27-0.319,1.87-0.569    c0.61-0.25,1.19-0.561,1.73-0.92c0.55-0.37,1.06-0.79,1.52-1.25c1.86-1.86,2.93-4.44,2.93-7.07    C66.666,158.085,66.596,157.425,66.466,156.785z" fill="#308e86"/>
	</g>
</g>
<g>
	<g>
		<path d="M348.845,193.808l3.299-3.299c3.905-3.905,3.906-10.237,0-14.143c-3.905-3.903-10.237-3.903-14.142,0l-3.3,3.3l-3.3-3.3    c-3.905-3.904-10.237-3.904-14.142,0c-3.905,3.905-3.905,10.237,0,14.143l3.299,3.299l-3.299,3.299    c-3.905,3.905-3.905,10.237,0,14.143c1.953,1.952,4.512,2.929,7.071,2.929c2.559,0,5.119-0.977,7.071-2.929l3.3-3.3l3.3,3.3    c1.953,1.952,4.512,2.929,7.071,2.929s5.119-0.977,7.071-2.929c3.905-3.905,3.905-10.237,0-14.143L348.845,193.808z" fill="#308e86"/>
	</g>
</g>
<g>
	<g>
		<path d="M226.841,243.3l3.3-3.3c3.907-3.906,3.907-10.238,0.002-14.143c-3.905-3.904-10.237-3.904-14.143,0l-3.3,3.3l-3.3-3.3    c-3.905-3.904-10.237-3.904-14.143,0c-3.905,3.905-3.905,10.237,0,14.143l3.3,3.3l-3.3,3.3c-3.905,3.905-3.905,10.237,0,14.143    c1.953,1.952,4.512,2.929,7.071,2.929s5.119-0.977,7.071-2.929l3.3-3.3l3.3,3.3c1.953,1.952,4.512,2.929,7.071,2.929    s5.119-0.977,7.071-2.929c3.905-3.905,3.905-10.237,0-14.143L226.841,243.3z" fill="#308e86"/>
	</g>
</g>
<g>
</g>
<g>
</g>
<g>
</g>
<g>
</g>
<g>
</g>
<g>
</g>
<g>
</g>
<g>
</g>
<g>
</g>
<g>
</g>
<g>
</g>
<g>
</g>
<g>
</g>
<g>
</g>
<g>
</g>
</svg>
