<?xml version="1.0" encoding="iso-8859-1"?>
<!-- Generator: Adobe Illustrator 19.0.0, SVG Export Plug-In . SVG Version: 6.00 Build 0)  -->
<svg xmlns="http://www.w3.org/2000/svg" xmlns:xlink="http://www.w3.org/1999/xlink" version="1.1" id="Capa_1" x="0px" y="0px" viewBox="0 0 512.002 512.002" style="enable-background:new 0 0 512.002 512.002;" xml:space="preserve" width="512px" height="512px">
<g>
	<g>
		<path d="M262.501,0c-28.948,0-52.5,23.551-52.5,52.5v45c0,28.949,23.552,52.5,52.5,52.5c28.948,0,52.5-23.551,52.5-52.5v-45    C315.001,23.551,291.449,0,262.501,0z M262.501,135c-20.678,0-37.5-16.822-37.5-37.5c0-11.743,5.43-22.239,13.906-29.12    c13.714,20.517,35.847,33.785,60.412,36.212C295.994,121.889,280.754,135,262.501,135z M252.325,61.414    C255.563,60.5,258.974,60,262.501,60c17.923,0,32.94,12.641,36.626,29.474C280.253,87.132,263.279,76.956,252.325,61.414z     M300.001,60.808C290.464,51.063,277.18,45,262.501,45c-8.734,0-16.97,2.156-24.223,5.945c-0.172,0.076-0.344,0.151-0.512,0.241    c-0.085,0.045-0.163,0.099-0.246,0.147c-4.641,2.521-8.854,5.728-12.519,9.474V52.5c0-20.678,16.822-37.5,37.5-37.5    c20.678,0,37.5,16.822,37.5,37.5V60.808z" fill="#308e86"/>
	</g>
</g>
<g>
	<g>
		<path d="M314.016,185.223C310.817,173.581,300.145,165,287.501,165h-50c-12.563,0-23.178,8.472-26.452,20h-17.096    c-3.274-11.528-13.889-20-26.452-20h-47.5v-20.076c6.824,3.251,14.452,5.076,22.5,5.076c28.948,0,52.5-23.551,52.5-52.5    S171.449,45,142.501,45c-8.734,0-16.969,2.156-24.222,5.945c-0.172,0.076-0.344,0.152-0.513,0.242    c-0.085,0.045-0.163,0.099-0.246,0.147c-7.657,4.16-14.16,10.176-18.925,17.432c-2.773-0.828-5.664-1.266-8.594-1.266    c-16.542,0-30,13.458-30,30v78.447c-26.684-13.68-45-41.456-45-73.447c0-4.142-3.357-7.5-7.5-7.5s-7.5,3.358-7.5,7.5    c0,40.48,24.799,75.273,60,89.996V222.5c0,4.142,3.357,7.5,7.5,7.5s7.5-3.358,7.5-7.5v-25.125c4.871,1.155,9.88,1.948,15,2.34    V337.5c0,4.142,3.357,7.5,7.5,7.5h8.115l-8.602,149.068c-0.195,3.382,1.901,6.476,5.115,7.547l30,10    c0.787,0.262,1.587,0.387,2.373,0.387c3.141,0,6.066-1.988,7.114-5.13c1.31-3.93-0.814-8.177-4.743-9.487l-24.554-8.185    L120.64,345h44.975l-8.602,149.068c-0.195,3.382,1.901,6.476,5.115,7.547l30,10c0.787,0.262,1.587,0.387,2.373,0.387    c3.141,0,6.066-1.988,7.114-5.13c1.31-3.93-0.814-8.177-4.743-9.487l-24.554-8.185L180.64,345h6.861c4.143,0,7.5-3.358,7.5-7.5    V200h15v92.5c0,14.996,6.33,28.532,16.445,38.108l-9.433,163.46c-0.195,3.382,1.901,6.476,5.115,7.547l30,10    c0.787,0.262,1.587,0.387,2.373,0.387c3.141,0,6.066-1.988,7.114-5.13c1.31-3.93-0.813-8.177-4.743-9.487l-24.554-8.185    l8.59-148.865c6.591,2.987,13.897,4.665,21.591,4.665c8.419,0,16.375-2.003,23.434-5.541l-8.922,154.609    c-0.195,3.382,1.901,6.476,5.115,7.547l30,10c0.787,0.262,1.587,0.387,2.373,0.387c3.141,0,6.066-1.988,7.114-5.13    c1.313-3.93-0.81-8.177-4.74-9.487l-24.554-8.185l9.335-161.774c8.293-9.287,13.347-21.525,13.347-34.926v-92.144    c41.987,3.804,75,39.182,75,82.144c0,4.142,3.357,7.5,7.5,7.5s7.5-3.358,7.5-7.5C405.001,230.928,364.751,188.587,314.016,185.223    z M142.501,60c17.923,0,32.94,12.641,36.626,29.474c-18.874-2.342-35.848-12.518-46.802-28.06C135.563,60.5,138.974,60,142.501,60    z M118.907,68.38c13.714,20.517,35.847,33.785,60.412,36.212C175.994,121.889,160.754,135,142.501,135    c-20.678,0-37.5-16.822-37.5-37.5C105.001,85.757,110.431,75.261,118.907,68.38z M91.126,184.73    c-5.546-0.426-10.937-1.401-16.125-2.874V97.5c0-8.271,6.729-15,15-15c0.723,0,1.442,0.054,2.151,0.156    c-1.391,4.71-2.151,9.689-2.151,14.844c0,14.269,5.73,27.22,15,36.692v33.826C98.357,171.424,93.274,177.451,91.126,184.73z     M180.001,330h-75c0,0,0-50,0-50h75V330z M180.001,265h-75v-72.5c0-6.893,5.607-12.5,12.5-12.5h50c6.893,0,12.5,5.607,12.5,12.5    V265z M262.502,330c-18.11,0-33.262-12.904-36.746-30h73.491C295.763,317.096,280.612,330,262.502,330z M300.001,285h-75v-92.5    c0-6.893,5.607-12.5,12.5-12.5h50c6.893,0,12.5,5.607,12.5,12.5V285z" fill="#308e86"/>
	</g>
</g>
<g>
	<g>
		<path d="M504.501,276.997c-4.143,0-7.5,3.358-7.5,7.5v7.5h-15v-7.5c0-4.142-3.357-7.5-7.5-7.5s-7.5,3.358-7.5,7.5v7.5h-21.492    c-4.143,0-7.5,3.358-7.5,7.5v20c0,9.777,6.271,18.114,15,21.21v8.79c0,4.679-4.032,9.543-8.63,10.411l-82.378,15.542v-5.953    c0-4.142-3.357-7.5-7.5-7.5s-7.5,3.358-7.5,7.5v14.87c0,0.021,0,120.133,0,120.133c0,4.142,3.357,7.5,7.5,7.5s7.5-3.358,7.5-7.5    v-33.263c14.671-2.991,26.258-14.567,29.247-29.24h15.753V504.5c0,4.142,3.357,7.5,7.5,7.5s7.5-3.358,7.5-7.5v-62.503h45.449    l-0.449,62.449c-0.029,4.142,3.304,7.524,7.446,7.554h0.055c4.117,0,7.469-3.322,7.499-7.446l0.45-62.557h14.55V504.5    c0,4.142,3.357,7.5,7.5,7.5s7.5-3.358,7.5-7.5V284.497C512.001,280.355,508.644,276.997,504.501,276.997z M497.001,426.997h-112.5    c-4.143,0-7.5,3.358-7.5,7.5c0,9.779-6.271,18.116-15,21.213v-64.995l85.159-16.067c11.69-2.206,20.849-13.253,20.849-25.151v-7.5    h6.492c4.143,0,7.5-3.358,7.5-7.5c0-4.142-3.357-7.5-7.5-7.5h-13.992c-4.136,0-7.5-3.364-7.5-7.5v-12.5h43.992V426.997z" fill="#308e86"/>
	</g>
</g>
<g>
</g>
<g>
</g>
<g>
</g>
<g>
</g>
<g>
</g>
<g>
</g>
<g>
</g>
<g>
</g>
<g>
</g>
<g>
</g>
<g>
</g>
<g>
</g>
<g>
</g>
<g>
</g>
<g>
</g>
</svg>
