<?xml version="1.0" encoding="iso-8859-1"?>
<!-- Generator: Adobe Illustrator 19.0.0, SVG Export Plug-In . SVG Version: 6.00 Build 0)  -->
<svg xmlns="http://www.w3.org/2000/svg" xmlns:xlink="http://www.w3.org/1999/xlink" version="1.1" id="Capa_1" x="0px" y="0px" viewBox="0 0 512 512" style="enable-background:new 0 0 512 512;" xml:space="preserve" width="512px" height="512px">
<g>
	<g>
		<path d="M421.82,52.495c-12.272,0-26.943,4.214-35.679,10.247l-0.643,0.444c24.252,10.799,41.169,35.093,41.169,63.353    c0,28.253-16.909,52.542-41.151,63.345l0.233,0.172c8.517,6.297,23.012,10.527,36.071,10.527c40.352,0,73.18-33.216,73.18-74.044    S462.172,52.495,421.82,52.495z" fill="#308e86"/>
	</g>
</g>
<g>
	<g>
		<polygon points="144.987,253.419 102.729,326.612 156.441,350.353 206.216,328.353 241,343.727 241,253.419   " fill="#308e86"/>
	</g>
</g>
<g>
	<g>
		<polygon points="273.324,91.13 300.987,43.258 275.012,28.247 256.003,61.144 256,61.139 255.997,61.146 236.988,28.248     211.013,43.258 238.677,91.131 162.309,223.42 349.692,223.42 349.692,223.419   " fill="#308e86"/>
	</g>
</g>
<g>
	<g>
		<polygon points="367.013,253.419 271,253.419 271,343.72 305.769,328.353 355.551,350.353 409.272,326.613   " fill="#308e86"/>
	</g>
</g>
<g>
	<g>
		<rect x="33.119" y="111.538" transform="matrix(0.7071 -0.7071 0.7071 0.7071 -75.3818 71.0874)" width="30" height="30" fill="#308e86"/>
	</g>
</g>
<g>
	<g>
		<rect x="81.058" y="63.597" transform="matrix(0.7071 -0.7071 0.7071 0.7071 -27.4414 90.9434)" width="30" height="30" fill="#308e86"/>
	</g>
</g>
<g>
	<g>
		<rect x="81.059" y="159.479" transform="matrix(0.7071 -0.7071 0.7071 0.7071 -95.2404 119.0279)" width="30" height="30" fill="#308e86"/>
	</g>
</g>
<g>
	<g>
		<polygon points="482.676,453.753 424.359,352.745 355.551,383.152 305.769,361.152 271,376.52 271,483.753 512,483.753     512,453.753   " fill="#308e86"/>
	</g>
</g>
<g>
	<g>
		<polygon points="206.216,361.152 156.441,383.152 87.642,352.744 29.325,453.753 0,453.753 0,483.753 241,483.753 241,376.526       " fill="#308e86"/>
	</g>
</g>
<g>
</g>
<g>
</g>
<g>
</g>
<g>
</g>
<g>
</g>
<g>
</g>
<g>
</g>
<g>
</g>
<g>
</g>
<g>
</g>
<g>
</g>
<g>
</g>
<g>
</g>
<g>
</g>
<g>
</g>
</svg>
